<mxfile host="Electron" agent="Mozilla/5.0 (X11; Linux x86_64) AppleWebKit/537.36 (KHTML, like Gecko) draw.io/25.0.2 Chrome/128.0.6613.186 Electron/32.2.5 Safari/537.36" version="25.0.2">
  <diagram name="Pagina-1" id="umjJK5tc-HiBesBjM-6u">
    <mxGraphModel dx="1434" dy="2025" grid="1" gridSize="10" guides="1" tooltips="1" connect="1" arrows="1" fold="1" page="1" pageScale="1" pageWidth="827" pageHeight="1169" math="0" shadow="0">
      <root>
        <mxCell id="0" />
        <mxCell id="1" parent="0" />
        <mxCell id="uDn2QIqaFx8nuZ1l0RsF-1" value="Cliente" style="shape=umlActor;verticalLabelPosition=bottom;verticalAlign=top;html=1;outlineConnect=0;" parent="1" vertex="1">
          <mxGeometry x="70" y="70" width="30" height="60" as="geometry" />
        </mxCell>
        <mxCell id="uDn2QIqaFx8nuZ1l0RsF-2" value="Addetto" style="shape=umlActor;verticalLabelPosition=bottom;verticalAlign=top;html=1;outlineConnect=0;" parent="1" vertex="1">
          <mxGeometry x="70" y="340" width="30" height="60" as="geometry" />
        </mxCell>
        <mxCell id="uDn2QIqaFx8nuZ1l0RsF-4" value="" style="ellipse;whiteSpace=wrap;html=1;" parent="1" vertex="1">
          <mxGeometry x="210" y="70" width="210" height="90" as="geometry" />
        </mxCell>
        <mxCell id="uDn2QIqaFx8nuZ1l0RsF-10" value="Direttore" style="shape=umlActor;verticalLabelPosition=bottom;verticalAlign=top;html=1;outlineConnect=0;" parent="1" vertex="1">
          <mxGeometry x="70" y="600" width="30" height="60" as="geometry" />
        </mxCell>
        <mxCell id="uDn2QIqaFx8nuZ1l0RsF-12" value="&lt;p style=&quot;line-height: 1px; margin-bottom: 0cm; background: transparent; font-size: medium; text-align: start;&quot;&gt;Prenota un posto&lt;/p&gt;" style="text;html=1;align=center;verticalAlign=middle;whiteSpace=wrap;rounded=0;" parent="1" vertex="1">
          <mxGeometry x="235" y="100" width="150" height="30" as="geometry" />
        </mxCell>
        <mxCell id="uDn2QIqaFx8nuZ1l0RsF-14" value="" style="ellipse;whiteSpace=wrap;html=1;" parent="1" vertex="1">
          <mxGeometry x="130" y="200" width="210" height="90" as="geometry" />
        </mxCell>
        <mxCell id="uDn2QIqaFx8nuZ1l0RsF-15" value="&lt;p style=&quot;line-height: 1px; margin-bottom: 0cm; background: transparent; font-size: medium; text-align: start;&quot;&gt;Crea un evento&lt;/p&gt;" style="text;html=1;align=center;verticalAlign=middle;whiteSpace=wrap;rounded=0;" parent="1" vertex="1">
          <mxGeometry x="160" y="220" width="150" height="30" as="geometry" />
        </mxCell>
        <mxCell id="uDn2QIqaFx8nuZ1l0RsF-17" value="" style="ellipse;whiteSpace=wrap;html=1;" parent="1" vertex="1">
          <mxGeometry x="180" y="420" width="210" height="90" as="geometry" />
        </mxCell>
        <mxCell id="uDn2QIqaFx8nuZ1l0RsF-18" value="&lt;p style=&quot;line-height: 1px; margin-bottom: 0cm; background: transparent; font-size: medium; text-align: start;&quot;&gt;Annulla un evento&lt;/p&gt;" style="text;html=1;align=center;verticalAlign=middle;whiteSpace=wrap;rounded=0;" parent="1" vertex="1">
          <mxGeometry x="225" y="460" width="150" height="30" as="geometry" />
        </mxCell>
        <mxCell id="uDn2QIqaFx8nuZ1l0RsF-19" value="" style="ellipse;whiteSpace=wrap;html=1;" parent="1" vertex="1">
          <mxGeometry x="180" y="-60" width="270" height="90" as="geometry" />
        </mxCell>
        <mxCell id="uDn2QIqaFx8nuZ1l0RsF-20" value="&lt;p style=&quot;line-height: 1px; margin-bottom: 0cm; background: transparent; font-size: medium; text-align: start;&quot;&gt;Cancella la prenotazione&lt;/p&gt;" style="text;html=1;align=center;verticalAlign=middle;whiteSpace=wrap;rounded=0;" parent="1" vertex="1">
          <mxGeometry x="200" y="-45" width="200" height="30" as="geometry" />
        </mxCell>
        <mxCell id="uDn2QIqaFx8nuZ1l0RsF-21" value="&lt;p style=&quot;line-height: 1px; margin-bottom: 0cm; background: transparent; font-size: medium; text-align: start;&quot;&gt;Crea un account di un addetto&lt;/p&gt;" style="ellipse;whiteSpace=wrap;html=1;" parent="1" vertex="1">
          <mxGeometry x="160" y="800" width="270" height="90" as="geometry" />
        </mxCell>
        <mxCell id="uDn2QIqaFx8nuZ1l0RsF-23" value="" style="ellipse;whiteSpace=wrap;html=1;" parent="1" vertex="1">
          <mxGeometry x="170" y="620" width="320" height="90" as="geometry" />
        </mxCell>
        <mxCell id="uDn2QIqaFx8nuZ1l0RsF-24" value="&lt;p style=&quot;line-height: 1px; margin-bottom: 0cm; background: transparent; font-size: medium; text-align: start;&quot;&gt;registrazione di un utente&lt;/p&gt;" style="text;html=1;align=center;verticalAlign=middle;whiteSpace=wrap;rounded=0;" parent="1" vertex="1">
          <mxGeometry x="210" y="640" width="225" height="30" as="geometry" />
        </mxCell>
        <mxCell id="uDn2QIqaFx8nuZ1l0RsF-25" value="&amp;lt;&amp;lt;&amp;lt;Extends&amp;gt;&amp;gt;&amp;gt;" style="endArrow=open;endSize=16;endFill=0;html=1;rounded=0;dashed=1;dashPattern=8 8;" parent="1" edge="1">
          <mxGeometry width="160" relative="1" as="geometry">
            <mxPoint x="90" y="580" as="sourcePoint" />
            <mxPoint x="90" y="430" as="targetPoint" />
          </mxGeometry>
        </mxCell>
        <mxCell id="uDn2QIqaFx8nuZ1l0RsF-39" value="Utente&amp;nbsp;" style="shape=umlActor;verticalLabelPosition=bottom;verticalAlign=top;html=1;outlineConnect=0;" parent="1" vertex="1">
          <mxGeometry x="65" y="740" width="40" height="60" as="geometry" />
        </mxCell>
      </root>
    </mxGraphModel>
  </diagram>
</mxfile>
